<?xml version="1.0" encoding="utf-8"?>
<!-- Generator: Adobe Illustrator 16.0.4, SVG Export Plug-In . SVG Version: 6.00 Build 0)  -->
<!DOCTYPE svg PUBLIC "-//W3C//DTD SVG 1.1//EN" "http://www.w3.org/Graphics/SVG/1.1/DTD/svg11.dtd">
<svg version="1.1" id="Layer_1" xmlns="http://www.w3.org/2000/svg" xmlns:xlink="http://www.w3.org/1999/xlink" x="0px" y="0px"
	 width="15px" height="24px" viewBox="0 0 15 24" enable-background="new 0 0 15 24" xml:space="preserve">
<g>
	<path fill="#FFFFFF" d="M10.038,23.613c-0.438,0-0.84-0.008-1.121-0.014c-0.159-0.004-0.281-0.006-0.354-0.006H7.219
		c-3.747,0-6.169-0.596-6.169-1.518c0-0.414-0.167-0.33,0.116-0.66c0.35-0.322,3.757-0.613,4.897-0.613
		c0.532,0,2.832,0.377,4.136,0.213c0.527-0.068,1.115-0.146,1.809-0.146c0.518,0,0.792,1.146,0.792,1.975
		c0,0.268-0.12,0.291-0.219,0.434C12.561,23.295,12.344,23.613,10.038,23.613L10.038,23.613z"/>
	<path fill="#FFFFFF" d="M4.931,19.117l-0.002-0.006c-0.412,0-1.377-1.039-1.377-1.609c0-1.072,2.282-3.891,5.955-7.355
		c0.082-0.075,0.162-0.188,0.147-0.3C9.643,9.739,9.539,9.644,9.441,9.584C8.8,9.209,8.154,8.744,7.534,8.293
		c-0.197-0.141-0.392-0.284-0.586-0.42C4.626,6.205,2.087,4.069,2.011,3.546l-0.057-0.4c0-0.016-0.003-0.028-0.003-0.043
		c-0.014-0.107-0.068-0.184-0.136-0.28C1.792,2.786,1.704,2.72,1.747,2.545c0.039-0.092,0.146-0.061,0.268-0.061
		c0.633,0,5.774,2.705,6.999,3.48c2.021,1.358,4.614,3.265,4.301,5.455c-0.158,1.095-2.892,2.64-4.055,3.587
		C8.264,15.816,7.015,17,6.648,17.389C6.114,17.951,5.125,18.994,4.931,19.117L4.931,19.117z"/>
</g>
</svg>
