<?xml version="1.0" encoding="utf-8"?>
<!-- Generator: Adobe Illustrator 16.0.0, SVG Export Plug-In . SVG Version: 6.00 Build 0)  -->
<!DOCTYPE svg PUBLIC "-//W3C//DTD SVG 1.1//EN" "http://www.w3.org/Graphics/SVG/1.1/DTD/svg11.dtd">
<svg version="1.1" id="Layer_1" xmlns="http://www.w3.org/2000/svg" xmlns:xlink="http://www.w3.org/1999/xlink" x="0px" y="0px"
	 width="200px" height="21.135px" viewBox="0 0 200 21.135" enable-background="new 0 0 200 21.135" xml:space="preserve">
<g>
	<g>
		<path fill="#FFFFFF" d="M9.038,21.135c-0.439,0-0.84-0.008-1.121-0.014c-0.159-0.004-0.281-0.006-0.354-0.006H6.219
			c-3.747,0-6.169-0.596-6.169-1.519c0-0.414-0.167-0.33,0.116-0.66c0.35-0.322,3.757-0.613,4.897-0.613
			c0.532,0,2.831,0.377,4.136,0.213c0.528-0.067,1.115-0.147,1.809-0.147c0.517,0,0.792,1.147,0.792,1.976
			c0,0.267-0.12,0.291-0.219,0.433C11.56,20.816,11.344,21.135,9.038,21.135L9.038,21.135z"/>
		<path fill="#FFFFFF" d="M3.931,16.638l-0.002-0.006c-0.412,0-1.377-1.039-1.377-1.61c0-1.072,2.282-3.889,5.955-7.354
			c0.082-0.075,0.162-0.188,0.147-0.3C8.642,7.26,8.539,7.165,8.442,7.105C7.8,6.73,7.155,6.265,6.534,5.814
			c-0.197-0.141-0.392-0.284-0.586-0.42C3.626,3.726,1.087,1.59,1.011,1.067L0.954,0.667c0-0.016-0.003-0.028-0.003-0.043
			C0.937,0.517,0.883,0.44,0.815,0.344C0.792,0.307,0.704,0.241,0.747,0.066c0.039-0.092,0.146-0.061,0.268-0.061
			c0.633,0,5.774,2.705,6.998,3.48c2.021,1.358,4.615,3.265,4.301,5.455c-0.158,1.095-2.891,2.64-4.054,3.586
			c-0.996,0.812-2.245,1.995-2.612,2.384C5.114,15.471,4.125,16.514,3.931,16.638L3.931,16.638z"/>
	</g>
	<circle fill="#FFFFFF" cx="181.73" cy="17.724" r="1.359"/>
	<g>
		<path fill="#FFFFFF" d="M199.62,16.492c-0.125,0.951-0.481,1.597-1.07,1.932c-0.331,0.186-1.344,0.286-2.001,0.304v-6.949
			c0-0.486,0.084-0.808,0.255-0.966c0.17-0.16,0.521-0.24,1.058-0.24v-0.335h-4.701v0.335c0.516,0,0.856,0.081,1.026,0.242
			c0.169,0.16,0.255,0.481,0.255,0.963v5.615h-0.003v0.493c0,0.389-0.133,0.65-0.393,0.788c-0.156,0.08-0.413,0.128-0.774,0.141
			v0.335h1.17v0.002h5.546l0.014-2.66H199.62z"/>
		<path fill="#FFFFFF" d="M184.588,18.578c0.443-0.011,0.728-0.103,0.854-0.272c0.131-0.168,0.192-0.417,0.192-0.746v-6.068
			c-0.363-0.439-0.588-0.696-0.674-0.774c-0.085-0.076-0.202-0.126-0.35-0.146v-0.326h2.525l4.092,5.353h0.058v-3.764
			c0-0.435-0.071-0.743-0.219-0.93c-0.146-0.186-0.438-0.298-0.878-0.333v-0.326h2.559v0.326c-0.374,0.065-0.624,0.153-0.747,0.267
			c-0.127,0.112-0.19,0.362-0.19,0.751v7.552h-0.332l-5.239-6.852h-0.079v5.025c0,0.394,0.05,0.673,0.149,0.836
			c0.159,0.264,0.484,0.406,0.977,0.427v0.326h-2.698V18.578z"/>
	</g>
	<g>
		<path fill="#FFFFFF" d="M17.036,18.073c0.857-0.008,1.414-0.169,1.67-0.479c0.257-0.313,0.385-0.782,0.385-1.408V4.925
			c0-0.644-0.146-1.066-0.439-1.27c-0.294-0.204-0.813-0.336-1.562-0.397V2.657h5.672l4.431,10.97h0.187l4.406-10.97h5.676v0.601
			c-0.762,0.062-1.282,0.21-1.562,0.444c-0.278,0.235-0.418,0.808-0.418,1.72v10.486c0,0.871,0.14,1.442,0.418,1.713
			c0.279,0.27,0.799,0.42,1.562,0.451v0.602h-7.476v-0.602c0.666-0.023,1.168-0.141,1.506-0.354C31.831,17.508,32,17.042,32,16.325
			V4.739h-0.166l-5.519,13.935h-0.604L20.137,5.017h-0.1v10.718c0,0.79,0.14,1.368,0.417,1.733c0.279,0.364,0.895,0.564,1.848,0.604
			v0.602h-5.266V18.073z"/>
		<path fill="#FFFFFF" d="M37.352,18.073c0.542-0.04,0.978-0.298,1.309-0.776c0.213-0.301,0.517-0.964,0.913-1.99l5.002-12.973
			h0.626l5.025,12.452c0.564,1.397,0.985,2.298,1.266,2.703c0.277,0.405,0.673,0.6,1.186,0.585v0.602h-7.289v-0.602
			c0.732-0.031,1.215-0.096,1.447-0.197c0.229-0.101,0.345-0.355,0.345-0.763c0-0.188-0.058-0.468-0.175-0.845
			c-0.075-0.226-0.173-0.494-0.298-0.812l-0.572-1.434H41.08c-0.331,0.94-0.543,1.554-0.638,1.84
			c-0.199,0.608-0.297,1.052-0.297,1.33c0,0.34,0.217,0.587,0.648,0.74c0.258,0.086,0.642,0.132,1.155,0.14v0.602h-4.596V18.073z
			 M45.804,13.084L43.638,7.6h-0.189l-2.032,5.485H45.804z"/>
		<path fill="#FFFFFF" d="M52.533,18.073c0.762-0.04,1.283-0.189,1.562-0.451c0.278-0.263,0.418-0.834,0.418-1.713V5.422
			c0-0.913-0.166-1.507-0.495-1.784c-0.22-0.183-0.714-0.311-1.484-0.38V2.657h7.246c1.501,0,2.718,0.166,3.65,0.497
			c1.802,0.671,2.704,1.88,2.704,3.623c0,1.289-0.473,2.304-1.417,3.043c-0.721,0.558-1.485,0.911-2.291,1.067l4.783,6.746
			c0.125,0.185,0.258,0.308,0.396,0.365c0.141,0.057,0.313,0.094,0.518,0.109v0.567h-4.699l-5.251-7.408h-0.01v4.642
			c0,0.832,0.132,1.395,0.396,1.685c0.264,0.289,0.792,0.448,1.584,0.479v0.602h-7.609V18.073z M61.324,9.849
			c0.634-0.412,0.951-1.366,0.951-2.863c0-0.919-0.122-1.645-0.363-2.178c-0.417-0.903-1.179-1.353-2.286-1.353
			c-0.602,0-0.996,0.079-1.183,0.237c-0.186,0.157-0.279,0.418-0.279,0.781v6.03C59.636,10.48,60.689,10.264,61.324,9.849z"/>
		<path fill="#FFFFFF" d="M68.698,18.073c0.612-0.023,1.047-0.108,1.306-0.256c0.435-0.247,0.652-0.716,0.652-1.411V4.925
			c0-0.683-0.199-1.143-0.597-1.38c-0.244-0.146-0.697-0.241-1.361-0.287V2.657h7.621v0.601c-0.777,0.069-1.301,0.224-1.573,0.461
			c-0.272,0.237-0.407,0.806-0.407,1.703v5.082l4.844-5.167c0.336-0.354,0.556-0.605,0.654-0.756
			c0.101-0.149,0.148-0.334,0.148-0.548c0-0.301-0.129-0.493-0.39-0.577c-0.261-0.086-0.763-0.151-1.508-0.197V2.657h6.52v0.601
			c-1.165,0.101-2.131,0.449-2.896,1.042c-0.767,0.595-2.217,2.041-4.351,4.338l6.872,8.949c0.146,0.193,0.292,0.314,0.435,0.365
			c0.143,0.05,0.365,0.09,0.667,0.121v0.602H77.78v-0.602c0.683-0.008,1.148-0.04,1.397-0.093c0.25-0.055,0.374-0.189,0.374-0.405
			c0-0.1-0.041-0.229-0.122-0.388c-0.081-0.158-0.224-0.372-0.429-0.644l-4.09-5.381l-0.571,0.602v4.642
			c0,0.688,0.219,1.153,0.652,1.4c0.252,0.146,0.687,0.235,1.307,0.267v0.602h-7.599V18.073z"/>
		<path fill="#FFFFFF" d="M86.208,2.657h13.556l0.023,4.779h-0.649c-0.212-1.709-0.821-2.866-1.826-3.47
			c-0.563-0.332-1.407-0.514-2.529-0.545v12.485c0,0.874,0.145,1.451,0.435,1.738c0.29,0.284,0.893,0.429,1.808,0.429v0.602H89
			v-0.602c0.879,0,1.465-0.146,1.753-0.435c0.291-0.29,0.434-0.867,0.434-1.732V3.421c-1.1,0.031-1.942,0.213-2.528,0.545
			c-1.078,0.62-1.687,1.777-1.825,3.47h-0.649L86.208,2.657z"/>
		<path fill="#FFFFFF" d="M101.445,18.073c0.741-0.054,1.236-0.219,1.489-0.492c0.254-0.274,0.379-0.832,0.379-1.672V5.422
			c0-0.889-0.129-1.451-0.384-1.686c-0.257-0.235-0.75-0.392-1.484-0.478V2.657h7.246c1.919,0,3.38,0.328,4.381,0.983
			c1,0.656,1.501,1.782,1.501,3.379c0,0.78-0.197,1.51-0.588,2.193c-0.395,0.683-1.04,1.232-1.941,1.649
			c-0.682,0.292-1.363,0.471-2.046,0.533c-0.68,0.062-1.692,0.092-3.034,0.092v4.422c0,0.871,0.14,1.442,0.419,1.713
			c0.279,0.27,0.798,0.42,1.561,0.451v0.602h-7.498V18.073z M109.647,10.18c0.711-0.478,1.065-1.509,1.065-3.09
			c0-1.08-0.171-1.953-0.516-2.616c-0.346-0.663-1.004-0.996-1.979-0.996c-0.447,0-0.77,0.056-0.962,0.168
			c-0.195,0.111-0.293,0.329-0.293,0.653v6.366C108.305,10.643,109.202,10.48,109.647,10.18z"/>
		<path fill="#FFFFFF" d="M126.706,18.073c0.543-0.04,0.978-0.298,1.309-0.776c0.213-0.301,0.516-0.964,0.911-1.99l5.003-12.973
			h0.627l5.025,12.452c0.563,1.397,0.984,2.298,1.264,2.703s0.674,0.6,1.188,0.585v0.602h-7.29v-0.602
			c0.733-0.031,1.215-0.096,1.446-0.197c0.231-0.101,0.346-0.355,0.346-0.763c0-0.188-0.058-0.468-0.175-0.845
			c-0.073-0.226-0.173-0.494-0.298-0.812l-0.574-1.434h-5.054c-0.33,0.94-0.545,1.554-0.639,1.84
			c-0.199,0.608-0.297,1.052-0.297,1.33c0,0.34,0.216,0.587,0.647,0.74c0.258,0.086,0.643,0.132,1.157,0.14v0.602h-4.597V18.073z
			 M135.159,13.084L132.993,7.6h-0.19l-2.031,5.485H135.159z"/>
		<path fill="#FFFFFF" d="M141.187,18.073c0.543-0.04,0.979-0.298,1.311-0.776c0.211-0.301,0.516-0.964,0.912-1.99l5.002-12.973
			h0.627l5.023,12.452c0.565,1.397,0.987,2.298,1.265,2.703c0.279,0.405,0.673,0.6,1.187,0.585v0.602h-7.288v-0.602
			c0.733-0.031,1.215-0.096,1.444-0.197c0.231-0.101,0.347-0.355,0.347-0.763c0-0.188-0.059-0.468-0.175-0.845
			c-0.074-0.226-0.173-0.494-0.297-0.812l-0.573-1.434h-5.055c-0.33,0.94-0.543,1.554-0.639,1.84
			c-0.199,0.608-0.297,1.052-0.297,1.33c0,0.34,0.215,0.587,0.648,0.74c0.259,0.086,0.641,0.132,1.154,0.14v0.602h-4.597V18.073z
			 M149.64,13.084L147.475,7.6h-0.188l-2.034,5.485H149.64z"/>
		<path fill="#FFFFFF" d="M154.975,2.657h13.557l0.022,4.779h-0.649c-0.212-1.709-0.82-2.866-1.824-3.47
			c-0.565-0.332-1.407-0.514-2.53-0.545v12.485c0,0.874,0.146,1.451,0.437,1.738c0.289,0.284,0.891,0.429,1.808,0.429v0.602h-8.025
			v-0.602c0.879,0,1.464-0.146,1.755-0.435c0.288-0.29,0.432-0.867,0.432-1.732V3.421c-1.1,0.031-1.941,0.213-2.527,0.545
			c-1.079,0.62-1.686,1.777-1.826,3.47h-0.647L154.975,2.657z"/>
		<path fill="#FFFFFF" d="M169.61,13.142h0.649c0.359,1.771,0.938,3.059,1.736,3.863c0.799,0.804,1.714,1.206,2.747,1.206
			c1.002,0,1.716-0.276,2.14-0.829c0.423-0.551,0.636-1.132,0.636-1.743c0-0.71-0.223-1.289-0.663-1.736
			c-0.293-0.293-0.885-0.677-1.777-1.146l-1.434-0.766c-1.422-0.756-2.428-1.506-3.014-2.247c-0.584-0.742-0.877-1.657-0.877-2.745
			c0-1.158,0.387-2.239,1.163-3.242c0.774-1.004,1.962-1.506,3.562-1.506c0.816,0,1.603,0.132,2.363,0.393
			c0.761,0.264,1.193,0.393,1.302,0.393c0.247,0,0.415-0.075,0.509-0.225c0.095-0.151,0.17-0.35,0.228-0.596h0.672v5.162h-0.627
			c-0.295-1.195-0.812-2.226-1.556-3.089c-0.74-0.865-1.64-1.296-2.702-1.296c-0.743,0-1.332,0.219-1.766,0.654
			c-0.434,0.436-0.651,0.967-0.651,1.593c0,0.748,0.204,1.308,0.608,1.68c0.399,0.377,1.293,0.935,2.683,1.667l1.66,0.881
			c0.742,0.394,1.333,0.829,1.773,1.309c0.824,0.893,1.235,1.981,1.235,3.261c0,1.195-0.44,2.322-1.324,3.383
			c-0.885,1.06-2.298,1.591-4.246,1.591c-0.447,0-0.899-0.046-1.358-0.134c-0.457-0.09-0.908-0.224-1.354-0.411l-0.434-0.174
			c-0.102-0.028-0.197-0.056-0.293-0.074c-0.093-0.019-0.172-0.029-0.236-0.029c-0.231,0-0.391,0.071-0.477,0.215
			c-0.086,0.142-0.163,0.344-0.228,0.607h-0.649V13.142z"/>
		<path fill="#FFFFFF" d="M126.079,13.874c-0.213,1.709-0.821,2.866-1.825,3.471c-0.565,0.333-2.296,0.515-3.418,0.546V5.404
			c0-0.873,0.145-1.452,0.436-1.737c0.288-0.286,0.893-0.429,1.808-0.429V2.637h-8.026v0.601c0.882,0,1.465,0.145,1.754,0.435
			c0.29,0.289,0.434,0.866,0.434,1.731v10.088h-0.005v0.887c0,0.695-0.225,1.167-0.672,1.414c-0.264,0.146-0.704,0.231-1.317,0.254
			v0.602h1.992v0.005h9.468l0.022-4.78H126.079z"/>
	</g>
</g>
</svg>
